<?xml version="1.0" encoding="UTF-8" standalone="no"?>
<!-- Created with Inkscape (http://www.inkscape.org/) -->

<svg
   width="1500.0768"
   height="299.65466"
   viewBox="0 0 1500.0768 299.65466"
   version="1.1"
   id="svg1"
   xmlns="http://www.w3.org/2000/svg"
   xmlns:svg="http://www.w3.org/2000/svg">
  <defs
     id="defs1">
    <clipPath
       clipPathUnits="userSpaceOnUse"
       id="clipPath10">
      <circle
         style="fill:#800080;stroke-width:0.264582"
         id="circle10"
         cx="195"
         cy="195"
         r="150" />
    </clipPath>
    <clipPath
       clipPathUnits="userSpaceOnUse"
       id="clipPath9">
      <circle
         style="fill:#ff00ff;stroke-width:0.264582"
         id="circle9"
         cx="5"
         cy="5"
         r="150" />
    </clipPath>
    <clipPath
       clipPathUnits="userSpaceOnUse"
       id="clipPath11">
      <circle
         style="fill:#800080;stroke-width:0.264582"
         id="circle11"
         cx="195"
         cy="194.99998"
         r="150" />
    </clipPath>
  </defs>
  <g
     id="layer1"
     transform="translate(-11.754267,-233.27815)">
    <g
       id="g2"
       transform="translate(-74.923208,-4.8686007)">
      <circle
         style="fill:#6d2b83;fill-opacity:1;stroke-width:0.264583"
         id="path1"
         cx="100"
         cy="100"
         r="100"
         clip-path="url(#clipPath10)"
         transform="matrix(1.4982733,0,0,1.4982733,86.677475,238.14675)" />
      <circle
         style="fill:#dd2877;fill-opacity:1;stroke-width:0.264583"
         id="path1-8"
         cx="100"
         cy="100"
         r="100"
         clip-path="url(#clipPath9)"
         transform="matrix(1.4982733,0,0,1.4982733,86.677475,238.14675)" />
      <circle
         style="fill:#431850;fill-opacity:1;stroke-width:0.264582"
         id="path3-5"
         cx="5"
         cy="5"
         r="150"
         clip-path="url(#clipPath11)"
         transform="matrix(1.4982733,0,0,1.4982733,86.677475,238.14675)" />
    </g>
    <path
       style="font-size:192px;font-family:Serif;-inkscape-font-specification:Serif;fill:#dd2877"
       d="m 317.97523,450.30209 v -8.064 h 2.496 q 6.528,0 11.136,-2.304 4.608,-2.496 4.608,-11.52 v -94.08 q 0,-8.448 -4.8,-10.752 -4.608,-2.304 -10.944,-2.304 h -2.496 v -8.064 h 51.456 q 24.96,0 37.056,8.448 12.288,8.256 12.288,25.92 0,12.864 -6.912,19.968 -6.72,6.912 -16.896,10.176 v 0.768 q 13.056,2.304 21.312,10.944 8.256,8.448 8.256,23.808 0,37.056 -49.344,37.056 z m 50.88,-76.608 q 16.896,0 23.04,-6.144 6.336,-6.144 6.336,-19.968 0,-14.208 -6.72,-19.392 -6.72,-5.376 -23.04,-5.376 h -12.864 v 50.88 z m 5.376,67.008 q 16.32,0 23.04,-6.336 6.72,-6.336 6.72,-21.696 0,-14.976 -6.336,-22.08 -6.144,-7.296 -23.04,-7.296 h -19.008 v 57.408 z m 131.51987,11.52 q -22.656,0 -35.52,-9.984 -12.864,-9.984 -12.864,-33.408 v -74.496 q 0,-8.448 -4.8,-10.752 -4.608,-2.304 -10.944,-2.304 h -2.496 v -8.064 h 55.872 v 8.064 h -2.496 q -6.528,0 -11.136,2.496 -4.608,2.304 -4.608,11.328 v 74.88 q 0,16.704 9.024,23.808 9.024,6.912 23.04,6.912 16.512,0 24.384,-8.448 7.872,-8.448 7.872,-21.504 v -76.416 q 0,-8.448 -4.8,-10.752 -4.608,-2.304 -10.944,-2.304 h -2.496 v -8.064 h 48.192 v 8.064 h -2.496 q -6.528,0 -11.136,2.496 -4.608,2.304 -4.608,11.328 v 76.032 q 0,19.2 -12.096,30.144 -12.096,10.944 -34.944,10.944 z m 75.45619,-1.92 v -8.064 h 2.496 q 6.528,0 11.136,-2.304 4.608,-2.496 4.608,-11.52 v -94.08 q 0,-8.448 -4.8,-10.752 -4.608,-2.304 -10.944,-2.304 h -2.496 v -8.064 h 51.456 q 24.96,0 37.056,8.448 12.288,8.256 12.288,25.92 0,12.864 -6.912,19.968 -6.72,6.912 -16.896,10.176 v 0.768 q 13.056,2.304 21.312,10.944 8.256,8.448 8.256,23.808 0,37.056 -49.344,37.056 z m 50.88,-76.608 q 16.896,0 23.04,-6.144 6.336,-6.144 6.336,-19.968 0,-14.208 -6.72,-19.392 -6.72,-5.376 -23.04,-5.376 h -12.864 v 50.88 z m 5.376,67.008 q 16.32,0 23.04,-6.336 6.72,-6.336 6.72,-21.696 0,-14.976 -6.336,-22.08 -6.144,-7.296 -23.04,-7.296 h -19.008 v 57.408 z m 69.31187,9.6 v -8.064 h 2.496 q 6.528,0 11.136,-2.304 4.608,-2.496 4.608,-11.52 v -94.08 q 0,-8.448 -4.8,-10.752 -4.608,-2.304 -10.944,-2.304 h -2.496 v -8.064 h 51.456 q 24.96,0 37.056,8.448 12.288,8.256 12.288,25.92 0,12.864 -6.912,19.968 -6.72,6.912 -16.896,10.176 v 0.768 q 13.056,2.304 21.312,10.944 8.256,8.448 8.256,23.808 0,37.056 -49.344,37.056 z m 50.88,-76.608 q 16.896,0 23.04,-6.144 6.336,-6.144 6.336,-19.968 0,-14.208 -6.72,-19.392 -6.72,-5.376 -23.04,-5.376 h -12.864 v 50.88 z m 5.376,67.008 q 16.32,0 23.04,-6.336 6.72,-6.336 6.72,-21.696 0,-14.976 -6.336,-22.08 -6.144,-7.296 -23.04,-7.296 h -19.008 v 57.408 z m 69.31187,9.6 v -8.064 h 2.496 q 6.528,0 11.136,-2.304 4.608,-2.496 4.608,-11.52 v -93.312 q 0,-9.024 -4.608,-11.328 -4.608,-2.496 -11.136,-2.496 h -2.496 v -8.064 h 55.872 v 8.064 h -2.496 q -6.336,0 -11.136,2.304 -4.608,2.304 -4.608,10.752 v 106.368 h 37.824 q 5.76,0 9.216,-2.496 3.648,-2.688 5.376,-6.72 1.728,-4.032 2.304,-8.064 l 1.92,-14.4 h 9.984 l -1.344,41.28 z m 119.61584,0 v -8.064 h 2.496 q 6.336,0 10.944,-2.112 4.8,-2.304 4.8,-10.752 v -94.272 q 0,-9.024 -4.608,-11.328 -4.608,-2.496 -11.136,-2.496 h -2.496 v -8.064 h 96.76803 l 0.96,33.6 h -9.984 l -0.96,-8.256 q -0.768,-6.336 -4.608,-10.944 -3.648,-4.8 -12.288,-4.8 h -32.25603 v 51.072 h 46.27203 v 9.408 h -46.27203 v 57.408 h 37.05603 q 9.024,0 13.056,-4.608 4.224,-4.8 5.184,-11.136 l 1.344,-8.256 h 9.984 l -1.344,33.6 z m 189.31183,1.92 q -22.272,0 -37.056,-8.832 -14.592,-8.832 -21.888,-24.576 -7.104,-15.936 -7.104,-37.248 0,-20.736 7.488,-36.48 7.68,-15.936 22.656,-24.768 14.976,-9.024 37.056,-9.024 21.312,0 31.872,6.144 10.56,6.144 10.56,15.36 0,6.144 -5.184,9.792 -5.184,3.648 -12.672,3.648 0,-5.952 -2.496,-11.52 -2.304,-5.76 -7.872,-9.408 -5.568,-3.84 -14.976,-3.84 -24.384,0 -34.752,15.744 -10.368,15.552 -10.368,44.352 0,28.8 10.752,44.352 10.944,15.36 37.056,15.36 5.568,0 10.752,-0.576 5.184,-0.576 9.216,-1.728 v -30.912 q 0,-8.448 -4.8,-10.752 -4.608,-2.304 -10.944,-2.304 h -0.768 v -8.064 h 49.92 v 8.064 h -0.768 q -5.376,0 -9.408,2.496 -3.84,2.304 -3.84,11.328 v 34.56 q -9.6,4.416 -19.776,6.72 -10.176,2.112 -22.656,2.112 z m 129.6002,0 q -22.656,0 -35.52,-9.984 -12.864,-9.984 -12.864,-33.408 v -74.496 q 0,-8.448 -4.8,-10.752 -4.608,-2.304 -10.944,-2.304 h -2.496 v -8.064 h 55.872 v 8.064 h -2.496 q -6.528,0 -11.136,2.496 -4.608,2.304 -4.608,11.328 v 74.88 q 0,16.704 9.024,23.808 9.024,6.912 23.04,6.912 16.512,0 24.384,-8.448 7.872,-8.448 7.872,-21.504 v -76.416 q 0,-8.448 -4.8,-10.752 -4.608,-2.304 -10.944,-2.304 h -2.496 v -8.064 h 48.192 v 8.064 h -2.496 q -6.528,0 -11.136,2.496 -4.608,2.304 -4.608,11.328 v 76.032 q 0,19.2 -12.096,30.144 -12.096,10.944 -34.944,10.944 z m 75.4561,-1.92 v -8.064 h 2.496 q 6.336,0 10.944,-2.112 4.8,-2.304 4.8,-10.752 v -95.04 q 0,-8.448 -4.8,-10.752 -4.608,-2.304 -10.944,-2.304 h -2.496 v -8.064 h 43.776 l 39.744,109.824 39.36,-109.824 h 42.624 v 8.064 h -2.496 q -6.528,0 -11.136,2.496 -4.608,2.304 -4.608,11.328 v 93.312 q 0,9.024 4.608,11.52 4.608,2.304 11.136,2.304 h 2.496 v 8.064 h -51.072 v -8.064 h 0.576 q 6.144,0 9.792,-2.112 3.648,-2.112 4.032,-9.984 v -102.528 l -43.968,122.688 h -10.368 l -44.544,-122.304 v 100.416 q 0,9.024 3.648,11.52 3.648,2.304 10.176,2.304 h 0.576 v 8.064 z"
       id="text1"
       aria-label="BUBBLEGUM" />
  </g>
</svg>
